<svg id="visual" viewBox="0 0 1536 731" width="1536" height="731" xmlns="http://www.w3.org/2000/svg" xmlns:xlink="http://www.w3.org/1999/xlink" version="1.1"><rect x="0" y="0" width="1536" height="731" fill="#001220"></rect><defs><linearGradient id="grad1_0" x1="52.4%" y1="0%" x2="100%" y2="100%"><stop offset="7.975376196990425%" stop-color="#001220" stop-opacity="1"></stop><stop offset="92.02462380300958%" stop-color="#001220" stop-opacity="1"></stop></linearGradient></defs><defs><linearGradient id="grad2_0" x1="0%" y1="0%" x2="47.6%" y2="100%"><stop offset="7.975376196990425%" stop-color="#001220" stop-opacity="1"></stop><stop offset="92.02462380300958%" stop-color="#001220" stop-opacity="1"></stop></linearGradient></defs><g transform="translate(1536, 0)"><path d="M0 475.2C-64.9 471.3 -129.7 467.5 -181.8 439C-233.9 410.4 -273.3 357.1 -309 309C-344.7 260.9 -376.7 217.9 -403.7 167.2C-430.8 116.6 -453 58.3 -475.1 0L0 0Z" fill="#512D6D"></path></g><g transform="translate(0, 731)"><path d="M0 -475.1C66.1 -472.2 132.2 -469.3 181.8 -439C231.4 -408.7 264.5 -351 304.8 -304.8C345.1 -258.5 392.6 -223.8 422.2 -174.9C451.8 -126 463.5 -63 475.2 0L0 0Z" fill="#512D6D"></path></g></svg>