<svg id="visual" viewBox="0 0 1536 540" width="1536" height="540" xmlns="http://www.w3.org/2000/svg" xmlns:xlink="http://www.w3.org/1999/xlink" version="1.1"><path d="M0 364L21.3 359.5C42.7 355 85.3 346 128 354.8C170.7 363.7 213.3 390.3 256 393C298.7 395.7 341.3 374.3 384 360.8C426.7 347.3 469.3 341.7 512 343.8C554.7 346 597.3 356 640 367.2C682.7 378.3 725.3 390.7 768 387C810.7 383.3 853.3 363.7 896 362.5C938.7 361.3 981.3 378.7 1024 385C1066.7 391.3 1109.3 386.7 1152 379.3C1194.7 372 1237.3 362 1280 367.2C1322.7 372.3 1365.3 392.7 1408 395.7C1450.7 398.7 1493.3 384.3 1514.7 377.2L1536 370L1536 541L1514.7 541C1493.3 541 1450.7 541 1408 541C1365.3 541 1322.7 541 1280 541C1237.3 541 1194.7 541 1152 541C1109.3 541 1066.7 541 1024 541C981.3 541 938.7 541 896 541C853.3 541 810.7 541 768 541C725.3 541 682.7 541 640 541C597.3 541 554.7 541 512 541C469.3 541 426.7 541 384 541C341.3 541 298.7 541 256 541C213.3 541 170.7 541 128 541C85.3 541 42.7 541 21.3 541L0 541Z" fill="#3a2350"></path><path d="M0 391L21.3 392C42.7 393 85.3 395 128 400.7C170.7 406.3 213.3 415.7 256 418.7C298.7 421.7 341.3 418.3 384 414C426.7 409.7 469.3 404.3 512 403.5C554.7 402.7 597.3 406.3 640 411.3C682.7 416.3 725.3 422.7 768 424.2C810.7 425.7 853.3 422.3 896 417.7C938.7 413 981.3 407 1024 410C1066.7 413 1109.3 425 1152 428.5C1194.7 432 1237.3 427 1280 419.3C1322.7 411.7 1365.3 401.3 1408 406.2C1450.7 411 1493.3 431 1514.7 441L1536 451L1536 541L1514.7 541C1493.3 541 1450.7 541 1408 541C1365.3 541 1322.7 541 1280 541C1237.3 541 1194.7 541 1152 541C1109.3 541 1066.7 541 1024 541C981.3 541 938.7 541 896 541C853.3 541 810.7 541 768 541C725.3 541 682.7 541 640 541C597.3 541 554.7 541 512 541C469.3 541 426.7 541 384 541C341.3 541 298.7 541 256 541C213.3 541 170.7 541 128 541C85.3 541 42.7 541 21.3 541L0 541Z" fill="#512d6d"></path><path d="M0 465L21.3 469.3C42.7 473.7 85.3 482.3 128 483C170.7 483.7 213.3 476.3 256 477C298.7 477.7 341.3 486.3 384 483.7C426.7 481 469.3 467 512 460.3C554.7 453.7 597.3 454.3 640 457.2C682.7 460 725.3 465 768 467.3C810.7 469.7 853.3 469.3 896 468.3C938.7 467.3 981.3 465.7 1024 469.7C1066.7 473.7 1109.3 483.3 1152 485C1194.7 486.7 1237.3 480.3 1280 475C1322.7 469.7 1365.3 465.3 1408 469.2C1450.7 473 1493.3 485 1514.7 491L1536 497L1536 541L1514.7 541C1493.3 541 1450.7 541 1408 541C1365.3 541 1322.7 541 1280 541C1237.3 541 1194.7 541 1152 541C1109.3 541 1066.7 541 1024 541C981.3 541 938.7 541 896 541C853.3 541 810.7 541 768 541C725.3 541 682.7 541 640 541C597.3 541 554.7 541 512 541C469.3 541 426.7 541 384 541C341.3 541 298.7 541 256 541C213.3 541 170.7 541 128 541C85.3 541 42.7 541 21.3 541L0 541Z" fill="#765390"></path></svg>