<svg id="visual" viewBox="0 0 400 400" width="400" height="400" xmlns="http://www.w3.org/2000/svg" xmlns:xlink="http://www.w3.org/1999/xlink" version="1.1"><g transform="translate(5.795380639308775 396.81424900072477)"><path d="M146.8 -229.6C198.8 -195 255.4 -168.7 282 -124.6C308.6 -80.5 305.3 -18.6 286.5 34C267.8 86.6 233.6 129.7 199 175.7C164.3 221.8 129.1 270.6 79.6 297C30.1 323.3 -33.5 327.2 -91.7 310.8C-149.9 294.5 -202.7 257.9 -244.1 211C-285.4 164.1 -315.4 106.9 -312.7 51.8C-309.9 -3.2 -274.3 -56.1 -244.5 -107.6C-214.7 -159.1 -190.6 -209.1 -150.8 -249.2C-111 -289.4 -55.5 -319.7 -4.1 -313.4C47.4 -307.1 94.8 -264.2 146.8 -229.6" fill="#0066FF"></path></g></svg>