<svg id="visual" viewBox="0 0 1536 350" width="1536" height="350" xmlns="http://www.w3.org/2000/svg" xmlns:xlink="http://www.w3.org/1999/xlink" version="1.1"><path d="M0 134L23.3 139.8C46.7 145.7 93.3 157.3 139.8 153.8C186.3 150.3 232.7 131.7 279.2 121.2C325.7 110.7 372.3 108.3 419 114.2C465.7 120 512.3 134 558.8 146.3C605.3 158.7 651.7 169.3 698.2 170.5C744.7 171.7 791.3 163.3 837.8 148.2C884.3 133 930.7 111 977.2 100.5C1023.7 90 1070.3 91 1117 88.7C1163.7 86.3 1210.3 80.7 1256.8 79C1303.3 77.3 1349.7 79.7 1396.2 90.2C1442.7 100.7 1489.3 119.3 1512.7 128.7L1536 138L1536 0L1512.7 0C1489.3 0 1442.7 0 1396.2 0C1349.7 0 1303.3 0 1256.8 0C1210.3 0 1163.7 0 1117 0C1070.3 0 1023.7 0 977.2 0C930.7 0 884.3 0 837.8 0C791.3 0 744.7 0 698.2 0C651.7 0 605.3 0 558.8 0C512.3 0 465.7 0 419 0C372.3 0 325.7 0 279.2 0C232.7 0 186.3 0 139.8 0C93.3 0 46.7 0 23.3 0L0 0Z" fill="#000f19"></path><path d="M0 232L23.3 232C46.7 232 93.3 232 139.8 237.3C186.3 242.7 232.7 253.3 279.2 262.2C325.7 271 372.3 278 419 276.2C465.7 274.3 512.3 263.7 558.8 267.7C605.3 271.7 651.7 290.3 698.2 296.2C744.7 302 791.3 295 837.8 291C884.3 287 930.7 286 977.2 278.3C1023.7 270.7 1070.3 256.3 1117 252.2C1163.7 248 1210.3 254 1256.8 254C1303.3 254 1349.7 248 1396.2 245C1442.7 242 1489.3 242 1512.7 242L1536 242L1536 136L1512.7 126.7C1489.3 117.3 1442.7 98.7 1396.2 88.2C1349.7 77.7 1303.3 75.3 1256.8 77C1210.3 78.7 1163.7 84.3 1117 86.7C1070.3 89 1023.7 88 977.2 98.5C930.7 109 884.3 131 837.8 146.2C791.3 161.3 744.7 169.7 698.2 168.5C651.7 167.3 605.3 156.7 558.8 144.3C512.3 132 465.7 118 419 112.2C372.3 106.3 325.7 108.7 279.2 119.2C232.7 129.7 186.3 148.3 139.8 151.8C93.3 155.3 46.7 143.7 23.3 137.8L0 132Z" fill="#001220"></path><path d="M0 351L23.3 351C46.7 351 93.3 351 139.8 351C186.3 351 232.7 351 279.2 351C325.7 351 372.3 351 419 351C465.7 351 512.3 351 558.8 351C605.3 351 651.7 351 698.2 351C744.7 351 791.3 351 837.8 351C884.3 351 930.7 351 977.2 351C1023.7 351 1070.3 351 1117 351C1163.7 351 1210.3 351 1256.8 351C1303.3 351 1349.7 351 1396.2 351C1442.7 351 1489.3 351 1512.7 351L1536 351L1536 240L1512.7 240C1489.3 240 1442.7 240 1396.2 243C1349.7 246 1303.3 252 1256.8 252C1210.3 252 1163.7 246 1117 250.2C1070.3 254.3 1023.7 268.7 977.2 276.3C930.7 284 884.3 285 837.8 289C791.3 293 744.7 300 698.2 294.2C651.7 288.3 605.3 269.7 558.8 265.7C512.3 261.7 465.7 272.3 419 274.2C372.3 276 325.7 269 279.2 260.2C232.7 251.3 186.3 240.7 139.8 235.3C93.3 230 46.7 230 23.3 230L0 230Z" fill="#003a62"></path></svg>