<?xml version="1.0" encoding="utf-8"?>
<!-- Generator: Adobe Illustrator 24.2.3, SVG Export Plug-In . SVG Version: 6.00 Build 0)  -->
<svg version="1.1" id="Layer_1" xmlns="http://www.w3.org/2000/svg" xmlns:xlink="http://www.w3.org/1999/xlink" x="0px" y="0px"
	 viewBox="0 0 70.9 57.4" style="enable-background:new 0 0 70.9 57.4;" xml:space="preserve">
<style type="text/css">
	.st0{fill:#6C63FF;}
	.st1{fill:#3F3D56;}
</style>
<path class="st0" d="M69,14.3L3.7,0.2c-2-0.9-4.5,0.9-3.5,3.2c0,0,25.9,52.7,25.9,52.7c0.7,1.4,2.8,1.8,3.8,0.6c0,0,18-19,18-19
	c0.6-0.7,1.8-0.5,2.3,0.3c1.3,1.4,3.4,9,6.3,8c1-0.2,1.8-1.1,1.8-2.2c0,0,0.7-15.8,0.7-15.8C59.4,25,76.3,17.5,69,14.3L69,14.3z
	 M69.4,17.7L59,26.2c-0.1,0.1-0.3,0.2-0.4,0.4C58,27.6-1.2-3.3,2.6,3.3c0,0,45.3,33.3,45.3,33.3C46.5,36.4,29.1,58.9,27.3,56
	C26.8,55.7,1.4,3.4,1.1,3C0.4,1.4,2.2,0.5,3.5,1.2C3.7,2.7,74.9,13.4,69.4,17.7L69.4,17.7z"/>
<path class="st1" d="M69,14.3L3.7,0.2L2.8,0.1C1.6-0.2,0.3,0.6,0.1,1.9c-0.1,0.5,0,1.1,0.2,1.5l25.9,52.7c0.3,0.7,1,1.2,1.8,1.3
	c0.8,0.1,1.5-0.1,2.1-0.7l18-19c0.3-0.3,0.6-0.4,1-0.4c0.5,0,1,0.3,1.3,0.7l3.7,6.8c0.5,0.9,1.5,1.4,2.6,1.2l0,0
	c1-0.2,1.8-1.1,1.8-2.2L59.1,28c0-0.2,0.1-0.4,0.1-0.6c0.1-0.2,0.2-0.3,0.4-0.5L70,18.4c1-0.8,1.1-2.3,0.3-3.3
	C70,14.7,69.5,14.4,69,14.3L69,14.3z M69.4,17.7L59,26.2c-0.1,0.1-0.3,0.2-0.4,0.4c-0.1,0.1-0.2,0.3-0.3,0.4
	c-0.1,0.1-0.1,0.3-0.2,0.4l0,0c0,0.2-0.1,0.3-0.1,0.5l-0.7,15.8c0,0.6-0.5,1.2-1.1,1.3l0,0c-0.6,0.2-1.3-0.1-1.5-0.7l-3.7-6.8
	c-0.4-0.7-1.1-1.2-1.9-1.2l0,0c-0.1,0-0.1,0-0.2,0c-0.4,0-0.7,0.1-1.1,0.3c-0.2,0.1-0.4,0.3-0.6,0.5l-18,19c-0.5,0.6-1.4,0.6-2,0.1
	c-0.1-0.1-0.2-0.2-0.3-0.4L1.1,3C0.7,2.3,1,1.4,1.7,1.1C2,0.9,2.3,0.9,2.6,1l0.9,0.2l65.3,14.1c0.8,0.2,1.2,0.9,1.1,1.7
	C69.8,17.2,69.7,17.5,69.4,17.7L69.4,17.7z"/>
<path class="st1" d="M58.9,26.7l-0.4,0.9l-0.2-0.1l0,0l-55-25l46,33.8l0,0l0.1,0.1l-0.6,0.8l-0.8-0.6L2.6,3.3C2.2,3,2.1,2.4,2.4,1.9
	c0.2-0.3,0.6-0.5,1-0.4c0.1,0,0.1,0,0.2,0.1l55.1,25L58.9,26.7z"/>
</svg>
